<svg viewBox="0 0 100 100" xmlns="http://www.w3.org/2000/svg">
  <defs>
    <linearGradient id="bg" x1="0%" y1="0%" x2="100%" y2="100%">
      <stop offset="0%" stop-color="#3b82f6" />
      <stop offset="100%" stop-color="#2563eb" />
    </linearGradient>
  </defs>
  <rect width="100" height="100" rx="25" fill="url(#bg)" />
  <!-- Map back -->
  <path d="M 20 40 L 40 30 L 60 40 L 80 30 L 80 70 L 60 80 L 40 70 L 20 80 Z" fill="#ffffff" opacity="0.9" />
  <!-- Map folds -->
  <line x1="40" y1="30" x2="40" y2="70" stroke="#93c5fd" stroke-width="3" opacity="0.7" stroke-linecap="round"/>
  <line x1="60" y1="40" x2="60" y2="80" stroke="#93c5fd" stroke-width="3" opacity="0.7" stroke-linecap="round"/>
  <!-- Location Pin -->
  <path d="M 50 15 C 40 15 34 23 34 33 C 34 47 50 63 50 63 C 50 63 66 47 66 33 C 66 23 60 15 50 15 Z" fill="#ef4444" />
  <circle cx="50" cy="30" r="6" fill="#ffffff" />
</svg>